<mxfile host="app.diagrams.net" modified="2023-06-11T09:57:31.773Z" agent="Mozilla/5.0 (Macintosh; Intel Mac OS X 10_15_7) AppleWebKit/605.1.15 (KHTML, like Gecko) Version/15.6.1 Safari/605.1.15" version="21.3.8" etag="ygESfuZa-01y7Q2-XCdR" type="github">
  <diagram name="Page-1" id="Svjhp7L71Hhxkz_4yOUD">
    <mxGraphModel>
      <root>
        <mxCell id="0" />
        <mxCell id="1" parent="0" />
      </root>
    </mxGraphModel>
  </diagram>
</mxfile>
